<?xml version="1.0" encoding="iso-8859-1"?>
<!-- Generator: Adobe Illustrator 19.0.0, SVG Export Plug-In . SVG Version: 6.00 Build 0)  -->
<svg xmlns="http://www.w3.org/2000/svg" xmlns:xlink="http://www.w3.org/1999/xlink" version="1.1" id="Capa_1" x="0px" y="0px" viewBox="0 0 465 465" style="enable-background:new 0 0 465 465;" xml:space="preserve" width="512" height="512">
<g>
	<path style="fill:#FFC9C2;" d="M143.67,36.53c-32.22,17.28-58.84,43.66-76.39,75.72V46.32c0-21.44,17.38-38.82,38.82-38.82   C124.16,7.5,139.33,19.83,143.67,36.53z"/>
	<path style="fill:#FFC9C2;" d="M397.72,46.32v65.93c-17.56-32.06-44.17-58.44-76.4-75.71C325.67,19.83,340.84,7.5,358.9,7.5   C380.34,7.5,397.72,24.88,397.72,46.32z"/>
	<path style="fill:#FEA793;" d="M397.72,112.3c94.36,178.78,41.74,345.2-165.22,345.2S-27.08,291.08,67.28,112.3v-0.05   c17.55-32.06,44.17-58.44,76.39-75.72c26.46-14.18,56.71-22.23,88.83-22.23c32.13,0,62.37,8.04,88.82,22.24   c32.23,17.27,58.84,43.65,76.4,75.71V112.3z"/>
	<path style="fill:#591200;" d="M169.145,125.052l-32.882-4.249c-4.107-0.532-7.869,2.369-8.399,6.477   c-0.531,4.108,2.369,7.868,6.477,8.399l26.343,3.404v13.407c0,4.142,3.358,7.5,7.5,7.5s7.5-3.358,7.5-7.5v-20   C175.684,128.72,172.885,125.535,169.145,125.052z"/>
	<path style="fill:#591200;" d="M328.737,120.804l-32.882,4.249c-3.74,0.483-6.539,3.667-6.539,7.438v20c0,4.142,3.358,7.5,7.5,7.5   s7.5-3.358,7.5-7.5v-13.407l26.343-3.404c4.108-0.531,7.008-4.291,6.477-8.399C336.606,123.173,332.851,120.271,328.737,120.804z"/>
	<path style="fill:#591200;" d="M449.635,254.333c-3.465-45.214-18.814-94.928-44.412-143.882V46.324   C405.223,20.781,384.442,0,358.899,0c-17.993,0-34.045,10.372-41.668,26.082C290.99,13.486,262.053,6.795,232.5,6.795   c-29.553,0-58.49,6.69-84.731,19.286C140.146,10.372,124.094,0,106.101,0C80.558,0,59.777,20.781,59.777,46.324v64.127   c-25.597,48.954-40.946,98.667-44.412,143.882c-3.538,46.157,5.241,88.216,25.388,121.629   c16.983,28.166,41.586,50.119,73.127,65.247C146.793,456.996,186.703,465,232.5,465s85.707-8.004,118.619-23.791   c31.541-15.128,56.145-37.081,73.127-65.247C444.394,342.549,453.172,300.49,449.635,254.333z M411.401,368.217   C379.141,421.72,317.278,450,232.5,450S85.859,421.72,53.599,368.217C15.336,304.759,22.74,212.757,73.91,115.802   c0.57-1.079,0.867-2.28,0.867-3.5V46.324C74.777,29.052,88.829,15,106.101,15c12.345,0,23.338,7.217,28.397,18.098   c-10.541,6.096-20.555,13.188-29.879,21.24c-3.135,2.708-3.482,7.443-0.774,10.578c1.483,1.718,3.575,2.598,5.68,2.598   c1.736,0,3.481-0.6,4.898-1.824c32.777-28.306,74.711-43.895,118.078-43.895c43.366,0,85.299,15.588,118.076,43.894   c3.135,2.708,7.872,2.36,10.578-0.774c2.708-3.135,2.361-7.871-0.774-10.578c-9.324-8.052-19.337-15.143-29.878-21.239   C335.561,22.217,346.554,15,358.899,15c17.272,0,31.324,14.052,31.324,31.324v65.977c0,1.22,0.297,2.422,0.867,3.5   C442.26,212.757,449.664,304.759,411.401,368.217z"/>
	<path style="fill:#591200;" d="M250.786,209.027c-4.816,0-8.903-3.174-10.284-7.539l12.383-7.56   c3.535-2.158,4.651-6.774,2.493-10.31c-2.158-3.535-6.773-4.651-10.31-2.493l-12.569,7.673l-12.569-7.673   c-3.539-2.16-8.152-1.042-10.31,2.493c-2.158,3.536-1.042,8.151,2.493,10.31l12.383,7.56c-1.382,4.365-5.469,7.539-10.284,7.539   c-4.142,0-7.5,3.358-7.5,7.5s3.358,7.5,7.5,7.5c7.141,0,13.612-2.919,18.286-7.625c4.674,4.706,11.145,7.625,18.286,7.625   c4.142,0,7.5-3.358,7.5-7.5S254.928,209.027,250.786,209.027z"/>
</g>















</svg>
