<?xml version="1.0" encoding="iso-8859-1"?>
<!-- Generator: Adobe Illustrator 18.0.0, SVG Export Plug-In . SVG Version: 6.00 Build 0)  -->
<!DOCTYPE svg PUBLIC "-//W3C//DTD SVG 1.1//EN" "http://www.w3.org/Graphics/SVG/1.1/DTD/svg11.dtd">
<svg version="1.1" id="Capa_1" xmlns="http://www.w3.org/2000/svg" xmlns:xlink="http://www.w3.org/1999/xlink" x="0px" y="0px"
	 viewBox="0 0 434.311 434.311" style="enable-background:new 0 0 434.311 434.311;" xml:space="preserve">
<g>
	<path d="M377.313,308.651h-8.976c11.368-10.427,18.51-25.392,18.51-41.998c0-31.428-25.569-56.998-56.998-56.998h-17.501
		c11.368-10.427,18.51-25.392,18.51-41.998c0-31.428-25.569-56.998-56.998-56.998h-18.217c11.368-10.427,18.51-25.392,18.51-41.998
		c0-31.428-25.569-56.998-56.998-56.998c-31.428,0-56.997,25.569-56.997,56.998c0,16.605,7.141,31.57,18.51,41.997h-18.217
		c-31.429,0-56.998,25.569-56.998,56.998c0,16.605,7.141,31.571,18.51,41.998h-17.501c-31.429,0-56.998,25.569-56.998,56.998
		c0,16.605,7.141,31.571,18.51,41.998h-8.976C25.569,308.651,0,334.22,0,365.648s25.569,56.997,56.998,56.997h320.316
		c31.429,0,56.998-25.569,56.998-56.998S408.742,308.651,377.313,308.651z M175.158,68.663c0-23.157,18.84-41.998,41.998-41.998
		c23.157,0,41.997,18.84,41.997,41.998c0,23.157-18.84,41.997-41.997,41.997h0C193.998,110.661,175.158,91.82,175.158,68.663z
		 M118.454,167.658c0-23.157,18.84-41.998,41.998-41.998H273.86c23.158,0,41.998,18.84,41.998,41.998s-18.84,41.998-41.998,41.998
		H160.451C137.293,209.656,118.454,190.816,118.454,167.658z M62.464,266.653c0-23.157,18.84-41.998,41.998-41.998h225.387
		c23.158,0,41.998,18.84,41.998,41.998s-18.84,41.998-41.998,41.998H104.462C81.304,308.651,62.464,289.811,62.464,266.653z
		 M377.313,407.646H56.998C33.84,407.646,15,388.806,15,365.648s18.84-41.997,41.998-41.997h320.316
		c23.158,0,41.998,18.84,41.998,41.998S400.471,407.646,377.313,407.646z"/>
	<path d="M295.151,167.658c0,4.142,3.358,7.5,7.5,7.5s7.5-3.358,7.5-7.5c0-19.85-16.149-35.999-35.999-35.999
		c-4.142,0-7.5,3.358-7.5,7.5s3.358,7.5,7.5,7.5C285.731,146.66,295.151,156.079,295.151,167.658z"/>
	<path d="M350.812,266.653c0,4.142,3.358,7.5,7.5,7.5s7.5-3.358,7.5-7.5c0-19.85-16.149-35.999-35.999-35.999
		c-4.142,0-7.5,3.358-7.5,7.5s3.358,7.5,7.5,7.5C341.392,245.655,350.812,255.075,350.812,266.653z"/>
	<path d="M378.63,329.65c-4.142,0-7.5,3.358-7.5,7.5s3.358,7.5,7.5,7.5c11.579,0,20.999,9.42,20.999,20.999
		c0,4.142,3.358,7.5,7.5,7.5s7.5-3.358,7.5-7.5C414.628,345.798,398.479,329.65,378.63,329.65z"/>
	<path d="M238.616,68.828c0,4.142,3.358,7.5,7.5,7.5s7.5-3.358,7.5-7.5c0-19.85-16.149-35.999-35.999-35.999
		c-4.142,0-7.5,3.358-7.5,7.5s3.358,7.5,7.5,7.5C229.196,47.829,238.616,57.249,238.616,68.828z"/>
</g>
<g>
</g>
<g>
</g>
<g>
</g>
<g>
</g>
<g>
</g>
<g>
</g>
<g>
</g>
<g>
</g>
<g>
</g>
<g>
</g>
<g>
</g>
<g>
</g>
<g>
</g>
<g>
</g>
<g>
</g>
</svg>
