<?xml version="1.0" encoding="iso-8859-1"?>
<!-- Generator: Adobe Illustrator 18.0.0, SVG Export Plug-In . SVG Version: 6.00 Build 0)  -->
<!DOCTYPE svg PUBLIC "-//W3C//DTD SVG 1.1//EN" "http://www.w3.org/Graphics/SVG/1.1/DTD/svg11.dtd">
<svg version="1.1" id="Capa_1" xmlns="http://www.w3.org/2000/svg" xmlns:xlink="http://www.w3.org/1999/xlink" x="0px" y="0px"
	 viewBox="0 0 462.557 462.557" style="enable-background:new 0 0 462.557 462.557;" xml:space="preserve">
<g>
	<circle cx="301.82" cy="107.574" r="11.693"/>
	<circle cx="160.737" cy="107.574" r="11.693"/>
	<path d="M416.177,331.699c7.373-7.075,11.565-16.515,12.476-28.192c2.503-32.137-13.866-60.119-47.336-80.919
		c-18.528-11.514-37.255-17.733-45.658-20.17c14.455-18.086,22.951-40.081,22.951-63.783c0-13.488-2.735-27.78-7.798-41.891
		c19.249-4.749,33.572-22.154,33.572-42.839c0-24.332-19.795-44.127-44.127-44.127c-14.594,0-28.138,7.347-36.266,19.018
		C282.056,10.083,256.884,0,231.279,0c-25.606,0-50.779,10.083-72.714,28.798c-8.128-11.672-21.673-19.02-36.267-19.02
		c-24.332,0-44.127,19.795-44.127,44.127c0,20.687,14.324,38.092,33.575,42.84c-5.063,14.111-7.797,28.402-7.797,41.89
		c0,23.747,8.527,45.78,23.032,63.885c-8.57,2.508-27.039,8.716-45.306,20.068c-33.47,20.8-49.839,48.781-47.335,80.92
		c0.901,11.557,5.011,20.928,12.245,27.979c-11.575,11.643-16.847,28.249-12.375,44.233l15.094,53.943
		c5.591,19.98,24.7,32.893,45.923,32.893c4.728,0,9.561-0.641,14.373-1.987c0.01-0.003,0.019-0.006,0.029-0.009l0,0.001
		l79.474-22.586c13.616,3.528,27.792,5.335,42.176,5.335c14.404,0,28.596-1.827,42.172-5.337l79.481,22.589l0-0.001
		c0.01,0.003,0.019,0.006,0.029,0.009h0c4.813,1.347,9.644,1.987,14.373,1.987c21.221,0,40.332-12.914,45.923-32.893l15.094-53.943
		C432.795,359.832,427.607,343.332,416.177,331.699z M413.698,302.342c-0.688,8.815-3.905,15.44-9.782,20.149
		c-3.431-1.858-7.129-3.379-11.067-4.481c-4.328-1.211-8.719-1.856-13.077-1.972c0.02-0.875,0.033-1.754,0.033-2.637
		c0-29.245-11.126-61.814-30.044-90.06C376.374,234.41,417.103,258.624,413.698,302.342z M340.256,24.778
		c16.061,0,29.127,13.066,29.127,29.127c0,14.455-10.596,26.485-24.431,28.742c-6.006-12.663-13.845-24.901-23.218-35.967
		c-2.173-2.566-4.399-5.026-6.665-7.394C320.217,30.458,329.828,24.778,340.256,24.778z M93.17,53.905
		c0-16.061,13.066-29.127,29.127-29.127c10.428,0,20.04,5.681,25.187,14.511c-2.265,2.367-4.49,4.826-6.662,7.391
		c-9.372,11.066-17.211,23.304-23.218,35.967C103.768,80.392,93.17,68.362,93.17,53.905z M152.269,56.375
		C174.866,29.694,202.926,15,231.279,15s56.413,14.694,79.01,41.375c20.864,24.635,33.321,55.386,33.321,82.26
		c0,51.047-46.375,92.957-104.831,96.284v-87.736c15.039-1.834,25.322-9.179,25.322-18.808c0-11.158-13.804-19.257-32.822-19.257
		c-19.019,0-32.823,8.099-32.823,19.257c0,9.629,10.283,16.974,25.323,18.808v87.736c-58.455-3.327-104.831-45.237-104.831-96.284
		C118.948,111.761,131.404,81.01,152.269,56.375z M231.279,132.632c-9.294,0-15.306-2.606-17.315-4.257
		c2.009-1.651,8.021-4.257,17.315-4.257c9.294,0,15.306,2.606,17.315,4.257C246.585,130.026,240.573,132.632,231.279,132.632z
		 M89.29,235.517c8.015-5.009,16.172-8.951,23.355-11.957c-18.829,28.196-29.897,60.672-29.897,89.841
		c0,0.881,0.013,1.76,0.033,2.637c-4.356,0.116-8.746,0.761-13.073,1.972c-3.838,1.074-7.446,2.549-10.804,4.343
		c-5.769-4.7-8.931-11.281-9.612-20.009C47.231,275.876,60.688,253.393,89.29,235.517z M105.556,446.124L105.556,446.124
		c-18.444,5.161-37.202-4.036-41.809-20.503l-15.094-53.943c-4.607-16.466,6.651-34.062,25.097-39.223
		c9.06-2.536,18.439-1.722,26.407,2.29c7.735,3.895,13.205,10.363,15.401,18.212l15.094,53.943
		c2.197,7.85,0.878,16.217-3.713,23.561C122.211,438.026,114.616,443.589,105.556,446.124z M146.331,420.003
		c5.757,3.523,11.771,6.658,18.012,9.413l-23.299,6.622C143.851,430.931,145.62,425.513,146.331,420.003z M191.23,423.041
		c-0.07-0.019-0.141-0.037-0.212-0.054c-17.158-4.66-32.798-12.164-46.527-22.298l-14.487-51.773
		c-3.347-11.962-11.551-21.753-23.101-27.568c-2.905-1.463-5.937-2.623-9.05-3.487c-0.066-1.474-0.104-2.962-0.104-4.46
		c0-32.436,15.358-69.648,40.454-98.762c23.258,21.828,56.376,35.501,93.076,35.501c36.699,0,69.816-13.672,93.074-35.499
		c25.095,29.113,40.452,66.324,40.452,98.76c0,1.506-0.038,2.993-0.104,4.461c-3.112,0.864-6.142,2.024-9.046,3.486
		c-11.55,5.815-19.754,15.606-23.101,27.568l-14.488,51.779c-24.152,17.823-54.864,27.615-86.788,27.615
		C217.586,428.31,204.112,426.537,191.23,423.041z M316.224,419.986c0.71,5.516,2.479,10.94,5.289,16.053l-23.339-6.633
		C304.42,426.651,310.454,423.507,316.224,419.986z M413.904,371.678l-15.094,53.943c-4.608,16.467-23.364,25.665-41.809,20.503
		c-9.06-2.535-16.654-8.098-21.384-15.663c-4.59-7.344-5.909-15.711-3.712-23.561l15.094-53.943
		c2.196-7.85,7.666-14.318,15.401-18.212c7.969-4.012,17.347-4.826,26.407-2.29C407.253,337.616,418.511,355.212,413.904,371.678z"
		/>
</g>
<g>
</g>
<g>
</g>
<g>
</g>
<g>
</g>
<g>
</g>
<g>
</g>
<g>
</g>
<g>
</g>
<g>
</g>
<g>
</g>
<g>
</g>
<g>
</g>
<g>
</g>
<g>
</g>
<g>
</g>
</svg>
